<svg width="403" height="87" viewBox="0 0 403 87" fill="none" xmlns="http://www.w3.org/2000/svg">
<g filter="url(#filter0_d_8_2)">
<path d="M118.231 41.5232H125.618V13.5866C125.618 11.626 127.211 10.0335 129.171 10.0335H146.589C149.634 10.0335 152.103 12.5026 152.103 15.5472C152.103 18.5918 149.634 21.0609 146.589 21.0609H134.826L128.917 28.7359H145.913C153.26 28.7359 159.216 22.7806 159.216 15.4334C159.216 8.08627 153.26 2.13092 145.913 2.13092H128.235C122.707 2.13092 118.231 6.60747 118.231 12.1346V41.5232Z" fill="white"/>
<path d="M322.49 34.1399H352.266L345.976 41.5272H321.044C315.517 41.5272 311.041 37.0507 311.041 31.5236V11.3959C311.041 8.57877 312.205 6.03604 314.078 4.21598C315.878 2.46953 318.334 1.39221 321.044 1.39221H323.741C323.801 1.39221 323.861 1.39221 323.921 1.39221H353.692L349.831 5.92229L347.402 8.77951H322.483C322.483 8.77951 322.416 8.77951 322.389 8.77951C320.469 8.82635 318.93 10.3988 318.93 12.326V18.4419H347.402L343.541 22.972L341.112 25.8292H318.93V30.5734C318.93 32.534 320.516 34.1265 322.483 34.1265L322.49 34.1399Z" fill="white"/>
<path d="M200.431 33.6176L194.83 41.5201H175.659C170.132 41.5201 165.656 37.0369 165.656 31.5165V6.88545L173.043 0V30.0644C173.043 32.0317 174.629 33.6176 176.596 33.6176H200.431Z" fill="white"/>
<path d="M250.206 28.5794L231.53 1.39221L209.475 33.5042L203.808 41.5272H213.002L231.53 15.0159L241.012 28.5794H250.206Z" fill="white"/>
<path d="M259.268 41.6021L250.007 41.5219H227.564L218.356 41.6021L223.562 34.0877H254.062L259.268 41.6021Z" fill="white"/>
<path d="M264.268 41.5978H271.702V22.1392L264.188 14.8857L264.268 24.1466V41.5978Z" fill="white"/>
<path d="M398.876 1.39905L384.75 1.47265H363.425L358.527 8.9001H374.974L375.008 15.4108V41.6813H382.442V8.9001H393.931L398.876 1.39905Z" fill="white"/>
<path d="M302.918 1.38943V36.6999L297.659 41.9594L275.39 18.6465L262.67 5.43773L268.096 0.251892L295.484 28.9245V13.7685L295.404 1.38943H302.918Z" fill="white"/>
<path d="M235.581 28.5878C233.119 28.6012 230.663 28.6146 228.201 28.628L231.794 23.1745L235.581 28.5945V28.5878Z" fill="white"/>
<path d="M166.864 64.8126C166.315 65.1338 165.68 65.2944 164.957 65.2944C164.181 65.2944 163.491 65.1138 162.889 64.7524C162.287 64.3911 161.819 63.8825 161.484 63.2134C161.149 62.5509 160.982 61.7814 160.982 60.9049C160.982 60.0283 161.149 59.2454 161.484 58.583C161.819 57.9272 162.287 57.412 162.889 57.0506C163.491 56.6893 164.181 56.5086 164.957 56.5086C165.68 56.5086 166.315 56.6692 166.864 56.9904C167.419 57.3049 167.848 57.78 168.149 58.4157H171.207C170.765 57.0707 169.989 56.0201 168.871 55.2573C167.754 54.4945 166.456 54.1131 164.97 54.1131C163.706 54.1131 162.561 54.4075 161.544 54.983C160.52 55.5584 159.717 56.3614 159.129 57.3986C158.54 58.429 158.245 59.6 158.245 60.9049C158.245 62.2097 158.54 63.374 159.129 64.4045C159.717 65.4282 160.52 66.2312 161.544 66.8067C162.561 67.3821 163.706 67.6699 164.97 67.6699C166.469 67.6699 167.774 67.2952 168.878 66.539C169.989 65.7896 170.765 64.7323 171.207 63.374H168.149C167.848 64.0097 167.419 64.4848 166.864 64.8126Z" fill="white"/>
<path d="M191.211 65.4479V54.2867H188.548V67.5557H195.58V65.4479H191.211Z" fill="white"/>
<path d="M224.348 57.3983C223.746 56.3612 222.929 55.5515 221.899 54.9694C220.862 54.3872 219.717 54.0995 218.466 54.0995C217.215 54.0995 216.084 54.3872 215.04 54.9694C214.003 55.5515 213.18 56.3612 212.571 57.3983C211.962 58.4288 211.654 59.5931 211.654 60.8846C211.654 62.176 211.962 63.3604 212.571 64.3909C213.18 65.428 214.003 66.231 215.04 66.8198C216.084 67.402 217.222 67.6897 218.466 67.6897C219.711 67.6897 220.848 67.402 221.885 66.8198C222.923 66.231 223.746 65.428 224.348 64.3909C224.95 63.3604 225.251 62.1894 225.251 60.8846C225.251 59.5797 224.95 58.4288 224.348 57.3983ZM221.999 63.2266C221.658 63.8957 221.183 64.4109 220.574 64.7723C219.965 65.1336 219.262 65.3143 218.466 65.3143C217.67 65.3143 216.961 65.1336 216.345 64.7723C215.729 64.4109 215.248 63.8957 214.906 63.2266C214.565 62.5507 214.398 61.7745 214.398 60.8846C214.398 59.9946 214.565 59.2184 214.906 58.556C215.248 57.8868 215.729 57.3783 216.345 57.0236C216.961 56.669 217.663 56.495 218.466 56.495C219.269 56.495 219.965 56.669 220.574 57.0236C221.183 57.3783 221.658 57.8868 221.999 58.556C222.34 59.2184 222.514 59.9946 222.514 60.8846C222.514 61.7745 222.34 62.5507 221.999 63.2266Z" fill="white"/>
<path d="M241.548 54.2867V56.4346H245.088V67.5557H247.751V56.4346H251.284V54.2867H241.548Z" fill="white"/>
<path d="M276.621 54.2867V59.7469H270.933V54.2867H268.276V67.5557H270.933V61.9082H276.621V67.5557H279.284V54.2867H276.621Z" fill="white"/>
<path d="M296.938 54.2867V67.5557H299.595V54.2867H296.938Z" fill="white"/>
<path d="M325.966 54.2629V63.3899L319.937 54.2629H317.274V67.552H319.937V58.445L325.966 67.552H328.629V54.2629H325.966Z" fill="white"/>
<path d="M351.732 60.1822V62.2164H356.295C356.095 63.1799 355.666 63.9294 355.024 64.4714C354.375 65.0067 353.545 65.2743 352.528 65.2743C351.705 65.2743 350.982 65.1004 350.367 64.7457C349.745 64.3911 349.256 63.8825 348.908 63.2268C348.56 62.5643 348.386 61.7881 348.386 60.9049C348.386 60.0216 348.56 59.2789 348.901 58.6231C349.243 57.9607 349.718 57.4588 350.327 57.1041C350.936 56.7495 351.632 56.5688 352.414 56.5688C353.124 56.5688 353.746 56.7161 354.281 57.0038C354.81 57.2982 355.231 57.7198 355.533 58.2818H358.597C358.176 56.9636 357.42 55.9398 356.315 55.2105C355.211 54.4811 353.913 54.1131 352.414 54.1131C351.15 54.1131 349.999 54.4075 348.968 54.983C347.931 55.5584 347.122 56.3614 346.533 57.3986C345.944 58.429 345.649 59.6 345.649 60.9049C345.649 62.2097 345.944 63.374 346.533 64.4045C347.122 65.4282 347.931 66.2312 348.968 66.8067C349.999 67.3821 351.156 67.6699 352.434 67.6699C353.579 67.6699 354.609 67.4357 355.526 66.9606C356.443 66.4855 357.199 65.8565 357.781 65.0669C358.363 64.284 358.744 63.4275 358.918 62.5041V60.1822H351.732Z" fill="white"/>
<path d="M379.889 59.6557C386.079 59.2542 392.268 58.8461 398.458 58.4446V61.2081C392.268 60.9405 386.079 60.6795 379.889 60.4119V59.6557Z" fill="url(#paint0_linear_8_2)"/>
<path d="M137.228 60.1127C131.038 60.5142 124.848 60.9224 118.659 61.3238V58.5603C124.848 58.828 131.038 59.0889 137.228 59.3566V60.1127Z" fill="url(#paint1_linear_8_2)"/>
<path d="M35.1418 68.2246L34.1176 67.2805C33.9842 67.5739 33.7442 67.7979 33.4455 67.9153C33.1468 68.0273 32.8107 68.0166 32.5227 67.8886C32.2346 67.7606 32.0052 67.5152 31.8879 67.2165C31.7759 66.9177 31.7865 66.5817 31.9146 66.2936L30.5276 66.1496C30.3836 66.1336 30.2396 66.171 30.1222 66.2563C30.0049 66.3363 29.9195 66.459 29.8822 66.5977L29.6102 67.6272C29.5942 67.6965 29.5995 67.7712 29.6315 67.8352C29.6635 67.8992 29.7168 67.9526 29.7809 67.9793L30.373 68.246L29.1301 70.9984C28.9914 71.3025 29.1301 71.6599 29.4341 71.7986L31.6372 72.7907C31.7812 72.8548 31.9519 72.8601 32.1012 72.8067C32.2506 72.7481 32.3733 72.636 32.4373 72.492L33.6802 69.7396L34.2723 70.0063C34.3363 70.0383 34.411 70.0436 34.4803 70.0223C34.5497 70.0009 34.6083 69.9583 34.651 69.8996L35.2431 69.0141C35.3231 68.8967 35.3605 68.7474 35.3391 68.6087C35.3231 68.4647 35.2538 68.3313 35.1471 68.2353L35.1418 68.2246Z" stroke="#520D2D" stroke-width="1.23337" stroke-miterlimit="10"/>
<path d="M51.8354 75.8554L53.0356 75.9781M48.3468 74.2872L49.547 74.4099M48.2561 75.1887L48.3308 74.4739C48.3948 73.8391 48.1174 73.503 48.2027 72.7563C48.2934 71.9401 48.8322 70.996 49.739 71.092C50.2991 71.1506 50.4378 71.7107 50.3845 72.2175C50.2884 73.151 49.611 73.8604 49.5203 74.7673L49.467 75.3167C49.451 75.4767 49.3709 75.6207 49.2483 75.7221C49.1256 75.8234 48.9655 75.8715 48.8055 75.8554C48.6455 75.8394 48.5015 75.7594 48.4001 75.6367C48.2988 75.5141 48.2508 75.354 48.2668 75.194L48.2561 75.1887ZM52.9449 76.8796L53.0196 76.1648C53.0836 75.5301 53.425 75.258 53.489 74.5059C53.5637 73.6897 53.2223 72.6549 52.3208 72.5642C51.7607 72.5055 51.5153 73.0283 51.462 73.5404C51.366 74.4739 51.894 75.3007 51.798 76.2075L51.7447 76.7569C51.7287 76.917 51.7767 77.077 51.878 77.1997C51.9794 77.3224 52.1234 77.4024 52.2834 77.4184C52.4435 77.4344 52.6035 77.3864 52.7262 77.285C52.8489 77.1837 52.9289 77.0396 52.9449 76.8796Z" stroke="#520D2D" stroke-width="1.23337" stroke-miterlimit="10"/>
<path d="M71.8799 68.2258C72.1253 68.6632 71.9706 69.2127 71.5332 69.458M71.8799 68.2258C71.6346 67.7884 71.0851 67.6337 70.6477 67.8791M71.8799 68.2258L72.2747 68.0018M71.5332 69.458C71.0958 69.7034 70.5464 69.5487 70.301 69.1113M71.5332 69.458L71.7573 69.8528M70.6477 67.8791C70.2103 68.1245 70.0556 68.6739 70.301 69.1113M70.6477 67.8791L70.4237 67.4844M70.301 69.1113L69.9063 69.3354C69.6716 69.4687 69.4049 69.5274 69.1328 69.5061C68.8608 69.4847 68.6101 69.3834 68.3967 69.218C68.1833 69.0526 68.0286 68.8286 67.9433 68.5726C67.8579 68.3165 67.8526 68.0445 67.9273 67.7831C68.002 67.5271 68.146 67.2923 68.354 67.1163C68.5567 66.9403 68.8128 66.8336 69.0795 66.8016C69.3462 66.7696 69.6182 66.8176 69.8583 66.9403C70.0983 67.063 70.2957 67.255 70.429 67.4897M69.9116 69.33C69.6769 69.4634 69.4849 69.6607 69.3622 69.9008C69.2395 70.1408 69.1915 70.4129 69.2235 70.6796C69.2555 70.9463 69.3622 71.2023 69.5382 71.405C69.7142 71.6131 69.949 71.7571 70.205 71.8318C70.4664 71.9065 70.7384 71.9011 70.9945 71.8158C71.2505 71.7304 71.4745 71.5757 71.6399 71.3624C71.8053 71.149 71.9066 70.893 71.928 70.6262C71.9493 70.3595 71.8906 70.0928 71.7573 69.8581C71.8906 70.0928 72.088 70.2849 72.328 70.4075C72.5681 70.5302 72.8401 70.5782 73.1068 70.5462C73.3735 70.5142 73.6242 70.4022 73.8323 70.2315C74.035 70.0555 74.1843 69.8261 74.259 69.5647C74.3337 69.3034 74.3284 69.0313 74.243 68.7753C74.1577 68.5192 74.003 68.2952 73.7896 68.1298C73.5762 67.9645 73.3202 67.8631 73.0535 67.8418C72.7868 67.8204 72.5147 67.8791 72.28 68.0125M70.429 67.4844C70.2957 67.2497 70.237 66.983 70.2583 66.7162C70.2797 66.4495 70.381 66.1935 70.5464 65.9801C70.7117 65.7668 70.9358 65.6121 71.1918 65.5267C71.4479 65.4414 71.7199 65.436 71.9813 65.5107C72.2373 65.5854 72.472 65.7294 72.6481 65.9374C72.8241 66.1402 72.9308 66.3962 72.9628 66.6629C72.9948 66.9296 72.9468 67.2017 72.8241 67.4417C72.7014 67.6817 72.5094 67.8791 72.2747 68.0125M69.4475 68.2045L70.221 68.4232M71.3359 67.7991L71.5546 67.0256M70.6264 70.3115L70.8451 69.5381M71.96 68.914L72.7334 69.1327" stroke="#520D2D" stroke-width="1.23337" stroke-miterlimit="10"/>
<path d="M81.9131 55.0969C81.9184 55.3209 81.9718 56.0251 82.5105 56.6278C83.0546 57.2359 83.7534 57.348 84.0841 57.4013C84.6762 57.4973 85.279 57.4173 85.8231 57.1666C86.3672 56.9212 86.8259 56.5158 87.1406 56.0091C87.4554 55.5023 87.6101 54.9102 87.5887 54.3128C87.5674 53.7153 87.37 53.1392 87.0233 52.6538C86.8313 52.3871 86.4205 51.811 85.6311 51.587C84.8523 51.3683 84.1961 51.6297 83.9881 51.7257C84.0148 51.8164 84.0468 51.9444 84.0468 52.1044C84.0468 52.3604 83.9561 52.5525 83.8654 52.7232C83.332 53.758 83.0546 54.0621 82.7399 54.5421C82.6972 54.6062 82.5959 54.7609 82.4092 54.8942C82.3825 54.9102 82.3612 54.9262 82.3345 54.9422C82.3345 54.9422 82.3025 54.9636 82.2651 54.9796C82.2118 55.0062 82.0838 55.0542 81.9131 55.0969Z" stroke="#520D2D" stroke-width="1.23337" stroke-miterlimit="10"/>
<path d="M87.0806 41.305L87.2459 40.7236L91.0759 40.9743C91.2146 40.985 91.3533 40.9423 91.4707 40.8623C91.5827 40.7823 91.668 40.6596 91.7 40.5262L92.5055 37.6831C92.5428 37.5497 92.5322 37.411 92.4788 37.283C92.4255 37.155 92.3295 37.0536 92.2068 36.9896L90.1851 35.9014L88.7875 40.8356L87.0806 41.3157V41.305ZM93.1563 40.8463C93.3163 40.8943 93.4123 41.0596 93.3643 41.2197C93.3163 41.3797 93.1509 41.4757 92.9909 41.4277C92.8309 41.3797 92.7349 41.2143 92.7829 41.0543C92.8309 40.8943 92.9962 40.7983 93.1563 40.8463ZM94.0631 37.6457C94.2231 37.6937 94.3191 37.8591 94.2711 38.0191C94.2231 38.1791 94.0578 38.2752 93.8977 38.2272C93.7377 38.1791 93.6417 38.0138 93.6897 37.8538C93.7377 37.6937 93.9031 37.5977 94.0631 37.6457Z" stroke="#520D2D" stroke-width="1.23337" stroke-miterlimit="10"/>
<path d="M82.3124 54.2792L81.6083 53.415C81.507 53.2924 81.4963 53.1217 81.587 52.9883L82.0724 52.2362C82.1578 52.1028 82.3178 52.0441 82.4671 52.0815L83.5073 52.3429C83.742 52.4015 83.854 52.6736 83.7313 52.8816L82.9152 54.2312C82.7872 54.4446 82.4831 54.4659 82.3231 54.2739L82.3124 54.2792Z" stroke="#520D2D" stroke-width="1.23337" stroke-miterlimit="10"/>
<path d="M49.3142 17.5119C49.3142 17.5119 55.8097 13.0048 57.8975 8.28229C57.8975 8.28229 59.2342 16.7055 49.3142 17.5119Z" fill="url(#paint2_linear_8_2)"/>
<path d="M29.0264 18.8539C32.9701 20.1574 39.1231 21.5658 46.4858 20.6766C49.1094 20.3617 51.4458 19.8039 53.4618 19.1742C52.0644 20.3507 50.6836 21.1405 49.4574 21.6763C40.4211 25.6255 30.7276 19.8867 29.0319 18.8483H29.0264V18.8539Z" fill="url(#paint3_linear_8_2)"/>
<path d="M57.0325 29.8896C56.8723 30.0056 50.7027 34.3636 39.7443 32.6624C39.6559 32.6513 39.5786 32.6347 39.4902 32.6237C39.4902 32.6237 39.6228 32.6182 39.8713 32.5961C42.1083 32.4414 53.597 31.5798 57.0325 29.8841V29.8896Z" fill="url(#paint4_linear_8_2)"/>
<path d="M97.4815 14.3906C96.1779 11.6013 92.1183 11.5074 90.7871 11.4742C87.2135 11.3859 81.9994 12.1757 76.0121 13.6007C70.0026 6.40378 60.9664 1.82489 50.8862 1.82489C32.8413 1.82489 18.1546 16.506 18.1546 34.5509C18.1546 36.0367 18.254 37.5115 18.4584 38.9697C17.9558 39.3066 17.4642 39.638 16.9892 39.9749C3.68886 49.2708 3.3906 53.3139 4.313 55.5453C5.20227 57.6829 7.81483 58.7765 12.3109 58.8815C16.2435 58.9754 21.4244 58.3402 27.1798 57.1416C33.2058 63.4548 41.6898 67.2825 50.8862 67.2825C68.9366 67.2825 83.6233 52.6069 83.6233 34.5509C83.6233 33.7501 83.5957 32.9547 83.5349 32.1648C88.2187 28.7403 95.7471 22.6978 97.4538 18.0913C97.973 16.7049 97.9841 15.4566 97.4815 14.3906ZM65.0868 7.58578C67.3956 8.80645 69.5497 10.3254 71.4774 12.0929C71.9303 12.5071 72.3666 12.9379 72.7974 13.3743C74.6754 15.324 76.2993 17.5168 77.6083 19.8864C78.365 21.2672 79.0168 22.7033 79.5526 24.178C78.608 24.8795 77.5641 25.6086 76.4539 26.3487C75.2498 25.0783 72.7477 21.0905 72.6594 20.9524C73.2007 22.7419 74.8577 26.0781 75.3603 27.0778C74.4766 27.6578 73.5431 28.2488 72.582 28.8398C72.1291 27.2214 71.2012 25.2606 69.7706 22.2227C69.5055 21.6649 69.2293 21.0794 68.9366 20.4553C68.8151 20.1957 68.6936 19.9305 68.5665 19.6654C68.2517 18.9916 67.9203 18.2735 67.5613 17.5003C67.2685 16.8595 67.0531 16.1967 66.7604 15.556C66.6444 15.2964 66.5505 15.0313 66.4566 14.7662C66.3075 14.3409 66.1694 13.9156 66.0368 13.4903C65.8159 12.7391 65.6226 11.9769 65.4679 11.2091C65.3409 10.5795 65.2415 9.94979 65.1752 9.3146C65.1255 8.82302 65.0923 8.32591 65.0868 7.82881C65.0868 7.80672 65.0979 7.59683 65.0868 7.58578ZM78.7406 17.3787C78.9118 17.329 79.0831 17.2793 79.2488 17.2351C81.5244 16.8043 85.1477 16.2851 85.678 17.4561C86.1088 18.4061 84.4408 20.3393 81.4195 22.753C80.6904 20.8695 79.7901 19.0689 78.7406 17.3787ZM70.3782 30.1819C65.3795 33.1591 59.6463 36.1914 53.9682 38.7653C50.0245 40.5604 45.8986 42.2174 41.8831 43.6756C41.5793 42.6869 41.2479 41.6982 40.8668 40.704C49.1574 38.0472 57.0227 34.3908 64.2528 29.8285C65.8877 28.7956 67.5116 27.7075 69.0913 26.5752C69.7872 28.1328 70.2125 29.2651 70.3782 30.1819ZM50.8862 4.06738C52.3775 4.06738 53.8467 4.17785 55.2773 4.38774C53.8412 6.99478 50.7868 11.2312 45.2358 13.5676C38.3039 16.4895 31.8526 14.5729 28.9804 13.3853C34.5204 7.64654 42.2973 4.06738 50.8862 4.06738ZM27.6714 14.8269C29.4223 15.6057 33.0677 16.9424 37.5638 16.9424C40.1432 16.9424 43.0098 16.5005 45.9538 15.2578C52.4051 12.5403 55.7633 7.48084 57.1828 4.72467C59.0829 5.12787 60.9277 5.70231 62.6841 6.44796C62.5405 8.05527 62.5681 11.6731 64.5952 16.7877C64.6836 17.0032 64.7664 17.2186 64.8659 17.4395C65.0095 17.793 65.1641 18.152 65.3298 18.5221C65.6557 19.218 65.954 19.8698 66.2412 20.4884C66.3738 20.748 66.4842 21.0076 66.6057 21.2506C66.9371 21.9797 67.252 22.6481 67.5447 23.2667C67.8595 23.9184 68.1357 24.515 68.3953 25.0618C66.7549 26.2438 65.0813 27.3705 63.3856 28.4476C56.2383 32.9602 48.4504 36.567 40.2426 39.1961C39.4583 37.3789 38.5193 35.5838 37.3981 33.855C37.2545 33.6285 37.0998 33.4021 36.9452 33.1811C36.2437 32.1427 35.4649 31.1209 34.6143 30.1488C34.4541 29.9555 34.2939 29.7787 34.1172 29.5909C33.1727 28.5415 32.1288 27.5418 31.002 26.5807C28.6822 24.6475 26.0696 23.0292 23.214 21.7698C24.385 19.2512 25.8873 16.9148 27.6714 14.8269ZM22.275 24.0289C24.8987 25.1999 27.3013 26.6856 29.4223 28.4642C30.306 29.2098 31.1346 29.9831 31.8968 30.795C32.068 30.9773 32.2448 31.1651 32.4049 31.3529C33.2611 32.2919 34.0454 33.2861 34.7524 34.3079C34.907 34.5344 35.0727 34.7664 35.2219 35.0039C37.2103 38.0252 38.6077 41.2729 39.5798 44.493C37.4146 45.2387 35.2992 45.9236 33.2832 46.5256C33.1727 45.4762 33.0015 44.3605 32.7363 43.2061C32.2613 41.0685 31.5543 39.1409 30.759 37.4342C30.6319 37.158 30.5049 36.8873 30.3668 36.6277C29.7924 35.4899 29.1793 34.4515 28.5607 33.5291C28.4281 33.3192 28.2845 33.1093 28.1464 32.9105C27.7819 32.3968 27.4228 31.9108 27.0804 31.4689C27.34 31.966 27.6051 32.5018 27.8702 33.0762C27.9697 33.3027 28.0746 33.5291 28.174 33.7556C28.6159 34.7774 29.0412 35.9152 29.4223 37.1469C29.5107 37.4397 29.5991 37.7324 29.6819 38.0417C30.0962 39.5275 30.422 41.1569 30.6209 42.9023C30.7976 44.4599 30.8529 45.907 30.8087 47.2382C28.2955 47.9396 25.9757 48.492 23.9597 48.8786C22.9599 46.9951 22.1535 44.9957 21.557 42.8857C21.4852 42.6537 21.4244 42.4328 21.3692 42.2064C21.3471 42.129 21.3306 42.0407 21.3085 41.9523C21.0212 40.7924 20.8003 39.6214 20.6457 38.4284C20.6125 38.1467 20.5794 37.8595 20.5518 37.5778C20.4523 36.5725 20.4026 35.5672 20.4026 34.5509C20.4026 30.8558 21.071 27.3098 22.275 24.0289ZM21.6343 49.2597C18.602 49.6574 16.6136 49.5083 16.2269 48.6521C15.774 47.6635 17.4642 45.8905 19.3311 44.2831C19.4139 44.2279 19.4968 44.1782 19.5796 44.1285C20.1209 45.9181 20.8114 47.6248 21.6343 49.2597ZM41.4743 63.5598C37.0722 62.1292 33.0788 59.7265 29.7869 56.5672C33.5096 55.711 37.4146 54.6395 41.3252 53.4078C41.7505 57.5558 41.6566 61.1737 41.4743 63.5598ZM50.8862 65.0345C48.489 65.0345 46.1416 64.7639 43.877 64.2281C44.0924 61.6652 44.2526 57.4785 43.7058 52.64C48.2294 51.1432 52.7089 49.4199 56.8846 47.564C62.2864 45.1614 67.9534 42.1732 73.3222 38.9255L77.2769 49.7955C72.0021 58.9035 62.1539 65.0345 50.8862 65.0345ZM78.8069 46.8018L75.4542 37.6164C77.4868 36.3405 79.4697 35.026 81.3587 33.7114C81.3697 33.9876 81.3697 34.2748 81.3697 34.5509C81.3697 38.9089 80.4529 43.0514 78.8069 46.8018ZM83.2367 29.5302C82.5628 30.0439 81.8779 30.5575 81.1764 31.0712C79.1438 32.557 76.9731 34.0483 74.692 35.5175C73.996 35.976 73.289 36.4179 72.571 36.8597C67.379 40.0799 61.7231 43.1564 56.0505 45.7027C51.9688 47.5364 47.6881 49.1769 43.4296 50.6019C42.6453 50.867 41.8555 51.1156 41.0711 51.3697C36.6082 52.7836 32.2116 53.938 28.0912 54.8162C27.6217 54.9212 25.5725 55.3244 25.5725 55.3244C14.697 57.3957 6.31799 57.3128 5.11942 54.4075C3.92084 51.5133 9.83639 45.8352 18.5854 39.8313C18.7346 40.82 18.9444 41.7976 19.193 42.7697C19.2372 42.9465 19.2869 43.1177 19.3421 43.2945C18.9776 43.5541 18.6351 43.7971 18.3258 44.0401C16.1883 45.6695 14.3324 47.426 15.1112 49.326C15.8237 51.0548 18.1104 51.0548 18.9721 51.0548C19.8945 51.0548 21.0599 50.9444 22.4242 50.7455C23.4515 50.6019 24.7827 50.3368 24.7827 50.3368C28.8921 49.5359 34.2221 48.0943 40.0327 46.1224C40.795 45.8628 41.5682 45.5977 42.3415 45.316C46.3625 43.8855 50.5548 42.2174 54.6863 40.3505C59.9942 37.9534 65.6336 34.9928 70.7759 31.9384C71.4995 31.502 72.2065 31.0712 72.9134 30.6349C73.9021 30.0328 74.8577 29.4197 75.7801 28.8121C77.172 27.9008 78.6743 26.8845 80.1104 25.8406C80.7511 25.3656 81.3974 24.8795 82.0105 24.3934C84.3855 22.51 86.3021 20.6486 86.8103 19.2456C87.1306 18.3509 86.9594 17.666 86.755 17.2462C86.28 16.263 85.2416 15.7714 83.6675 15.7714C82.375 15.7825 80.5191 16.1084 78.2877 16.6662C77.7354 15.8211 77.1499 15.0037 76.5147 14.2194C86.5507 11.8885 94.4105 11.408 95.7305 14.1752C97.0562 16.959 91.715 23.0292 83.2367 29.5302Z" fill="url(#paint5_linear_8_2)"/>
<path d="M39.4902 32.6213C39.5344 32.6324 39.5731 32.6379 39.6173 32.6434C39.6615 32.6489 39.7001 32.6544 39.7443 32.6655C39.7443 32.6655 39.7498 32.6655 39.7498 32.66C39.794 32.6379 39.8327 32.6158 39.8713 32.5937C39.6283 32.6158 39.4902 32.6213 39.4902 32.6213Z" fill="url(#paint6_linear_8_2)"/>
<path d="M83.245 29.5351C82.5711 30.0488 81.8862 30.5625 81.1847 31.0762C79.1521 32.562 76.9814 34.0533 74.7003 35.5225C74.0043 35.9809 73.2973 36.4228 72.5793 36.8647C67.3873 40.0848 61.7314 43.1613 56.0589 45.7076C51.9771 47.5414 47.6965 49.1818 43.4379 50.6068C42.6536 50.872 41.8638 51.1205 41.0794 51.3746C36.6166 52.7886 32.2199 53.943 28.0995 54.8212C27.63 54.9261 25.5808 55.3293 25.5808 55.3293C14.7053 57.4006 6.32632 57.3178 5.12774 54.4125C3.92917 51.5182 9.84471 45.8402 18.5938 39.8362C18.7429 40.8249 18.9528 41.8026 19.2013 42.7747C19.2455 42.9514 19.2952 43.1227 19.3505 43.2994C18.9859 43.559 18.6435 43.802 18.3342 44.0451C16.1966 45.6745 14.3407 47.4309 15.1195 49.3309C15.8321 51.0598 18.1187 51.0598 18.9804 51.0598C19.9028 51.0598 21.0682 50.9493 22.4325 50.7505C23.4599 50.6068 24.791 50.3417 24.791 50.3417C28.9004 49.5408 34.2305 48.0992 40.041 46.1274C40.8033 45.8678 41.5766 45.6027 42.3498 45.321C46.3708 43.8904 50.5631 42.2223 54.6946 40.3554C60.0026 37.9583 65.6419 34.9978 70.7842 31.9433C71.5078 31.507 72.2148 31.0762 72.9218 30.6398C73.9104 30.0378 74.866 29.4247 75.7884 28.8171C77.1803 27.9057 78.6826 26.8894 80.1187 25.8455C80.7594 25.3705 81.4057 24.8844 82.0188 24.3984C84.3938 22.5149 86.3104 20.6535 86.8186 19.2506C87.1389 18.3558 86.9677 17.6709 86.7634 17.2511C86.2883 16.268 85.25 15.7764 83.6758 15.7764C82.3833 15.7874 80.5275 16.1133 78.296 16.6712C77.7437 15.8261 77.1582 15.0086 76.523 14.2243C86.559 11.8934 94.4188 11.4129 95.7389 14.1801C97.0645 16.9639 91.7234 23.0341 83.245 29.5351Z" fill="url(#paint7_linear_8_2)"/>
</g>
<defs>
<filter id="filter0_d_8_2" x="0" y="0" width="402.875" height="86.0381" filterUnits="userSpaceOnUse" color-interpolation-filters="sRGB">
<feFlood flood-opacity="0" result="BackgroundImageFix"/>
<feColorMatrix in="SourceAlpha" type="matrix" values="0 0 0 0 0 0 0 0 0 0 0 0 0 0 0 0 0 0 127 0" result="hardAlpha"/>
<feOffset dy="4"/>
<feGaussianBlur stdDeviation="2"/>
<feComposite in2="hardAlpha" operator="out"/>
<feColorMatrix type="matrix" values="0 0 0 0 0 0 0 0 0 0 0 0 0 0 0 0 0 0 0.25 0"/>
<feBlend mode="normal" in2="BackgroundImageFix" result="effect1_dropShadow_8_2"/>
<feBlend mode="normal" in="SourceGraphic" in2="effect1_dropShadow_8_2" result="shape"/>
</filter>
<linearGradient id="paint0_linear_8_2" x1="398.458" y1="59.823" x2="379.889" y2="59.823" gradientUnits="userSpaceOnUse">
<stop/>
<stop offset="1" stop-opacity="0"/>
</linearGradient>
<linearGradient id="paint1_linear_8_2" x1="118.659" y1="59.9387" x2="137.228" y2="59.9387" gradientUnits="userSpaceOnUse">
<stop/>
<stop offset="1" stop-opacity="0"/>
</linearGradient>
<linearGradient id="paint2_linear_8_2" x1="49.3142" y1="12.8943" x2="57.9583" y2="12.8943" gradientUnits="userSpaceOnUse">
<stop stop-color="#EFA2C8"/>
<stop offset="1" stop-color="#520D2D"/>
</linearGradient>
<linearGradient id="paint3_linear_8_2" x1="29.0264" y1="20.9527" x2="53.4618" y2="20.9527" gradientUnits="userSpaceOnUse">
<stop stop-color="#EFA2C8"/>
<stop offset="1" stop-color="#520D2D"/>
</linearGradient>
<linearGradient id="paint4_linear_8_2" x1="39.4847" y1="31.4693" x2="57.0325" y2="31.4693" gradientUnits="userSpaceOnUse">
<stop stop-color="#EFA2C8"/>
<stop offset="1" stop-color="#520D2D"/>
</linearGradient>
<linearGradient id="paint5_linear_8_2" x1="3.99817" y1="34.5565" x2="97.8515" y2="34.5565" gradientUnits="userSpaceOnUse">
<stop stop-color="#EFA2C8"/>
<stop offset="1" stop-color="#520D2D"/>
</linearGradient>
<linearGradient id="paint6_linear_8_2" x1="39.4902" y1="32.6268" x2="39.8713" y2="32.6268" gradientUnits="userSpaceOnUse">
<stop stop-color="#EFA2C8"/>
<stop offset="1" stop-color="#520D2D"/>
</linearGradient>
<linearGradient id="paint7_linear_8_2" x1="4.97309" y1="34.5228" x2="95.9377" y2="34.5228" gradientUnits="userSpaceOnUse">
<stop stop-color="#EFA2C8"/>
<stop offset="1" stop-color="#520D2D"/>
</linearGradient>
</defs>
</svg>
